<svg width="500" height="500" viewBox="0 0 500 500" fill="none" xmlns="http://www.w3.org/2000/svg">
<g clip-path="url(#clip0_1747_2841)">
<path d="M250.005 374.995C319.045 374.995 375.01 319.026 375.01 249.987C375.01 180.947 319.045 124.979 250.005 124.979C180.966 124.979 125 180.947 125 249.987C125 319.026 180.966 374.995 250.005 374.995Z" fill="white"/>
<path d="M141.745 312.52L33.5039 125.04C11.5564 163.042 0 206.152 0 250.04C0 293.927 11.5512 337.037 33.4961 375.04C55.4409 413.042 87.0052 444.601 125.013 466.536C163.021 488.47 206.136 500.013 250.021 500L358.262 312.52V312.491C347.299 331.504 331.522 347.294 312.52 358.273C293.517 369.252 271.959 375.033 250.013 375.036C228.067 375.04 206.507 369.264 187.501 358.292C168.496 347.318 152.715 331.533 141.745 312.525V312.52Z" fill="#229342"/>
<path d="M358.256 312.512L250.017 499.992C293.902 500 337.015 488.449 375.02 466.509C413.025 444.57 444.584 413.008 466.524 375C488.462 336.993 500.009 293.879 500.002 249.995C499.994 206.11 488.432 163 466.479 125H249.999L249.973 125.018C271.919 125.008 293.48 130.776 312.49 141.743C331.5 152.711 347.285 168.488 358.261 187.493C369.237 206.498 375.015 228.058 375.015 250.004C375.015 271.951 369.235 293.51 358.259 312.514L358.256 312.512Z" fill="#FBC116"/>
<path d="M250.006 348.979C304.662 348.979 348.969 304.672 348.969 250.013C348.969 195.354 304.662 151.05 250.006 151.05C195.35 151.05 151.043 195.357 151.043 250.013C151.043 304.669 195.35 348.979 250.006 348.979Z" fill="#1A73E8"/>
<path d="M250.007 125.008H466.487C444.55 87 412.993 55.4357 374.988 33.4908C336.984 11.5474 293.872 -0.00333091 249.988 7.20511e-07C206.104 0.00262539 162.993 11.5591 124.993 33.5093C86.992 55.4581 55.4392 87.0252 33.5078 125.037L141.749 312.517L141.778 312.533C130.796 293.532 125.01 271.974 125.004 250.028C124.997 228.081 130.769 206.52 141.739 187.512C152.707 168.504 168.492 152.719 187.497 141.748C206.503 130.777 228.064 125 250.012 125.005L250.007 125.008Z" fill="#E33B2E"/>
</g>
<defs>
<clipPath id="clip0_1747_2841">
<rect width="500" height="500" fill="white"/>
</clipPath>
</defs>
</svg>
